#N canvas 39 300 1119 656 10;
#X text 93 254 Positive Value;
#X text 350 255 Negative Value;
#X obj 234 226 << 3;
#X obj 196 255 +;
#X obj 277 452 outlet;
#X obj 344 226 << 3;
#X obj 306 255 +;
#X obj 428 391 i;
#X obj 471 405 + 1;
#X obj 486 383 change;
#X msg 455 363 0;
#X obj 428 335 t b b;
#X obj 400 335 t b;
#X obj 486 356 > \$5;
#X obj 428 452 outlet;
#X obj 234 157 ctlin \$1 1;
#X obj 159 157 ctlin \$2 1;
#X obj 398 158 ctlin \$3 1;
#X obj 319 157 ctlin \$4 1;
#X obj 301 333 * -1;
#X connect 2 0 3 1;
#X connect 3 0 4 0;
#X connect 3 0 12 0;
#X connect 5 0 6 1;
#X connect 6 0 12 0;
#X connect 6 0 19 0;
#X connect 7 0 8 0;
#X connect 7 0 13 0;
#X connect 7 0 14 0;
#X connect 8 0 7 1;
#X connect 9 0 11 0;
#X connect 10 0 7 1;
#X connect 11 0 7 0;
#X connect 11 1 10 0;
#X connect 12 0 7 0;
#X connect 13 0 9 0;
#X connect 15 0 2 0;
#X connect 16 0 3 0;
#X connect 17 0 5 0;
#X connect 18 0 6 0;
#X connect 19 0 4 0;
