#N canvas 561 235 1119 656 10;
#X text 93 254 Positive Value;
#X text 350 255 Negative Value;
#X obj 211 90 ctlin;
#X obj 196 202 i;
#X obj 234 201 i;
#X obj 234 226 << 3;
#X obj 196 255 +;
#X obj 277 452 outlet;
#X obj 224 135 route \$1 \$2;
#X obj 321 90 ctlin;
#X obj 306 202 i;
#X obj 344 201 i;
#X obj 344 226 << 3;
#X obj 306 255 +;
#X obj 334 135 route \$3 \$4;
#X obj 428 391 i;
#X obj 471 405 + 1;
#X obj 486 383 change;
#X msg 455 363 0;
#X obj 428 335 t b b;
#X obj 400 335 t b;
#X obj 486 356 > \$5;
#X obj 428 452 outlet;
#X connect 2 0 3 1;
#X connect 2 0 4 1;
#X connect 2 1 8 0;
#X connect 3 0 6 0;
#X connect 4 0 5 0;
#X connect 5 0 6 1;
#X connect 6 0 7 0;
#X connect 6 0 20 0;
#X connect 8 0 3 0;
#X connect 8 1 4 0;
#X connect 9 0 10 1;
#X connect 9 0 11 1;
#X connect 9 1 14 0;
#X connect 10 0 13 0;
#X connect 11 0 12 0;
#X connect 12 0 13 1;
#X connect 13 0 7 0;
#X connect 13 0 20 0;
#X connect 14 0 10 0;
#X connect 14 1 11 0;
#X connect 15 0 16 0;
#X connect 15 0 21 0;
#X connect 15 0 22 0;
#X connect 16 0 15 1;
#X connect 17 0 19 0;
#X connect 18 0 15 1;
#X connect 19 0 15 0;
#X connect 19 1 18 0;
#X connect 20 0 15 0;
#X connect 21 0 17 0;
